<?xml version="1.0" standalone="no"?>
<!DOCTYPE svg PUBLIC "-//W3C//DTD SVG 20010904//EN"
 "http://www.w3.org/TR/2001/REC-SVG-20010904/DTD/svg10.dtd">
<svg version="1.0" xmlns="http://www.w3.org/2000/svg"
 width="512.000000pt" height="512.000000pt" viewBox="0 0 512.000000 512.000000"
 preserveAspectRatio="xMidYMid meet">
<metadata>
Created by potrace 1.14, written by Peter Selinger 2001-2017
</metadata>
<g transform="translate(0.000000,512.000000) scale(0.100000,-0.100000)"
fill="#000000" stroke="none">
<path d="M2355 5084 c-37 -12 -79 -28 -94 -35 -39 -21 -124 -72 -138 -84 -6
-5 -26 -21 -44 -35 -104 -78 -261 -270 -350 -427 -32 -55 -129 -249 -129 -257
0 -3 -9 -28 -21 -54 -58 -130 -64 -152 -41 -153 10 0 24 -2 32 -4 8 -2 31 -6
50 -9 19 -4 42 -9 50 -11 14 -4 27 -6 105 -19 29 -5 100 -15 140 -21 30 -4
125 -15 170 -20 54 -6 268 -18 330 -19 l50 -1 2 587 3 588 -24 -2 c-13 -1 -54
-12 -91 -24z"/>
<path d="M2653 4523 l2 -588 50 1 c59 0 273 13 330 19 69 7 139 16 174 20 42
6 257 43 291 50 14 3 41 8 60 11 19 3 36 7 38 8 6 7 -85 221 -140 331 -146
290 -302 483 -493 611 -89 59 -200 107 -281 120 l-34 5 3 -588z"/>
<path d="M1909 5036 c-2 -3 -16 -7 -30 -9 -104 -19 -444 -159 -578 -238 -194
-114 -380 -254 -532 -401 l-59 -56 73 -35 c39 -19 97 -45 127 -57 30 -13 59
-27 65 -32 5 -4 15 -8 23 -8 8 0 28 -6 45 -14 35 -16 172 -61 274 -91 18 -5
23 0 33 32 73 226 222 500 386 704 61 76 61 77 134 152 30 31 52 57 49 57 -3
0 -8 -2 -10 -4z"/>
<path d="M3246 4987 c27 -28 54 -56 60 -62 39 -33 227 -288 247 -335 4 -8 18
-33 31 -55 54 -87 144 -283 177 -385 16 -50 19 -55 44 -52 74 8 382 124 531
199 l72 36 -52 51 c-87 85 -129 121 -217 188 -85 65 -246 178 -255 178 -2 0
-22 11 -44 25 -21 13 -81 45 -132 70 -51 25 -101 50 -110 56 -10 5 -35 15 -55
23 -116 42 -245 86 -292 100 l-53 16 48 -53z"/>
<path d="M580 4182 c0 -4 -10 -18 -22 -32 -40 -44 -168 -225 -168 -237 0 -2
-13 -24 -30 -48 -16 -24 -30 -47 -30 -50 0 -4 -16 -33 -34 -65 -19 -33 -49
-92 -67 -132 -17 -40 -37 -86 -45 -103 -37 -83 -114 -341 -130 -435 -2 -14 -7
-36 -9 -50 -22 -109 -28 -160 -40 -312 l-5 -68 190 0 191 0 -3 -92 -3 -93
-188 0 -187 0 5 -65 c3 -36 7 -85 9 -110 2 -25 9 -74 14 -110 6 -36 13 -82 16
-102 3 -20 15 -69 25 -110 11 -40 22 -84 25 -98 6 -33 78 -242 106 -305 48
-111 107 -225 163 -320 62 -104 215 -315 228 -315 4 0 61 26 126 58 166 81
317 140 490 192 l72 21 -6 32 c-3 18 -10 40 -15 50 -5 9 -6 17 -4 17 3 0 1 11
-4 25 -5 14 -12 36 -14 48 -10 47 -15 69 -20 85 -3 9 -8 31 -11 47 -6 34 -12
69 -20 105 -9 41 -14 72 -21 114 -3 22 -7 43 -9 46 -1 3 -6 32 -10 65 -3 33
-8 74 -10 90 -2 17 -7 51 -10 78 l-6 47 95 0 c84 0 95 -2 94 -17 0 -10 2 -40
6 -68 13 -107 16 -129 21 -157 3 -15 7 -40 10 -55 10 -62 19 -113 30 -163 21
-99 20 -95 54 -225 17 -65 31 -120 31 -122 0 -2 4 -2 8 1 5 3 22 8 38 10 16 3
40 8 54 11 14 3 36 7 50 10 14 3 36 7 50 10 14 3 39 7 55 10 17 3 44 7 60 10
17 3 50 8 75 10 25 3 56 8 70 10 24 5 44 7 168 20 50 5 196 14 312 20 30 1 59
3 63 4 4 0 7 67 7 148 -1 82 -1 235 0 341 l0 192 90 0 90 0 0 -177 c1 -98 2
-252 3 -343 l2 -164 55 -2 c93 -4 273 -14 310 -18 19 -3 65 -7 102 -11 37 -3
77 -8 90 -10 27 -4 83 -13 136 -20 35 -6 55 -9 112 -20 14 -3 36 -7 50 -10 14
-3 36 -7 50 -10 14 -3 42 -8 62 -11 l37 -6 15 56 c36 129 45 162 50 186 3 14
7 36 10 50 6 26 24 117 32 160 2 14 7 36 9 50 3 14 7 43 11 65 3 22 7 51 9 65
2 14 7 48 10 75 11 99 1 90 104 93 l92 3 -6 -53 c-3 -29 -8 -64 -10 -78 -2
-14 -6 -45 -9 -70 -3 -25 -8 -58 -11 -75 -3 -16 -7 -43 -10 -60 -3 -16 -7 -41
-10 -55 -4 -23 -18 -94 -31 -160 -3 -14 -10 -43 -16 -65 -5 -22 -12 -51 -14
-65 -3 -14 -8 -34 -11 -45 -8 -25 -10 -30 -22 -80 -6 -22 -7 -43 -3 -46 4 -3
43 -16 87 -28 44 -12 89 -26 100 -30 11 -5 61 -23 110 -41 50 -18 155 -63 234
-101 79 -38 147 -69 152 -69 8 0 157 202 210 287 41 66 122 221 158 303 13 30
30 69 37 85 51 115 130 397 148 525 3 25 8 56 11 70 6 31 17 160 19 220 l1 45
-182 0 -183 0 0 92 0 93 186 0 185 0 -6 78 c-8 95 -14 149 -20 182 -2 14 -7
42 -10 63 -53 371 -238 804 -479 1121 -34 44 -64 84 -67 89 -3 5 -46 -11 -95
-36 -188 -94 -515 -218 -597 -226 -9 -1 -8 -4 37 -186 19 -77 37 -153 40 -170
3 -16 8 -41 11 -55 6 -27 12 -63 20 -110 3 -16 8 -45 11 -62 7 -41 12 -79 19
-143 3 -27 8 -67 11 -87 l5 -38 -95 0 c-84 0 -95 2 -94 18 1 25 -15 150 -28
215 -2 12 -6 37 -9 57 -3 20 -7 47 -10 60 -23 118 -38 190 -45 215 -5 17 -12
44 -15 60 -3 17 -7 35 -9 40 -1 6 -8 30 -15 55 -7 25 -14 53 -17 63 -4 12 -12
16 -32 12 -15 -3 -40 -7 -57 -10 -16 -3 -46 -10 -65 -15 -19 -5 -55 -12 -80
-15 -25 -3 -52 -8 -60 -10 -14 -4 -58 -11 -134 -20 -20 -3 -53 -7 -73 -10
-140 -18 -288 -29 -476 -34 l-38 -1 1 -227 c0 -126 1 -279 0 -340 l0 -113 -90
0 c-79 0 -90 2 -90 18 0 9 0 162 0 340 l0 322 -43 1 c-133 3 -330 16 -387 24
-14 2 -50 7 -80 10 -58 7 -69 9 -140 19 -94 15 -106 16 -130 21 -14 3 -36 8
-50 10 -14 3 -41 8 -60 11 -19 3 -43 7 -52 10 -63 19 -66 17 -83 -43 -10 -32
-19 -71 -22 -88 -3 -16 -9 -38 -14 -47 -5 -10 -8 -18 -5 -18 3 0 -1 -21 -9
-47 -12 -44 -27 -113 -40 -188 -3 -16 -7 -39 -9 -50 -2 -11 -7 -40 -10 -65 -3
-25 -8 -55 -10 -67 -7 -35 -19 -136 -18 -155 1 -16 -10 -18 -94 -18 l-96 0 6
43 c3 23 8 62 11 87 10 79 14 104 19 138 6 32 11 63 21 125 3 17 8 39 10 47 2
8 7 30 10 47 3 18 13 63 21 100 9 38 18 77 20 88 2 11 11 45 19 75 30 102 32
95 -38 115 -34 10 -66 19 -72 20 -69 16 -333 124 -467 191 -92 46 -98 48 -98
36z"/>
<path d="M2227 1174 c-1 -1 -38 -5 -82 -9 -114 -10 -166 -15 -195 -20 -14 -2
-47 -7 -75 -11 -27 -3 -57 -8 -67 -9 -9 -2 -38 -7 -65 -11 -26 -5 -50 -8 -53
-9 -3 -1 -18 -4 -35 -8 -16 -4 -46 -9 -65 -13 -19 -3 -42 -7 -50 -9 -18 -3
-15 -26 11 -82 10 -24 19 -48 19 -54 0 -17 129 -277 178 -359 89 -148 238
-323 352 -414 79 -63 259 -146 345 -158 20 -3 20 3 23 585 l2 588 -121 -3
c-66 -2 -121 -4 -122 -4z"/>
<path d="M2650 595 l0 -587 38 5 c48 7 79 16 122 34 302 127 551 431 745 908
20 50 39 95 41 101 5 11 -23 22 -81 31 -16 2 -46 8 -65 13 -44 11 -94 20 -140
25 -36 4 -72 10 -125 19 -16 3 -66 8 -110 12 -44 3 -89 8 -100 10 -11 2 -89 7
-172 10 l-153 6 0 -587z"/>
<path d="M1296 1014 c-22 -8 -50 -16 -62 -18 -89 -16 -514 -194 -514 -215 0
-9 124 -128 189 -181 24 -19 48 -40 55 -45 6 -6 36 -28 66 -50 30 -22 57 -42
60 -45 5 -5 48 -33 115 -76 125 -79 286 -159 430 -213 33 -13 69 -27 80 -32
20 -8 160 -51 183 -55 20 -4 14 5 -42 64 -229 243 -380 491 -496 820 -13 34
-23 62 -24 61 0 0 -19 -7 -40 -15z"/>
<path d="M3775 1008 c-32 -105 -50 -147 -129 -310 -54 -111 -198 -346 -225
-368 -3 -3 -22 -25 -41 -50 -32 -41 -49 -62 -139 -159 -17 -19 -30 -35 -28
-37 4 -5 197 56 287 91 85 33 314 148 405 203 141 86 303 212 437 341 l67 64
-47 24 c-115 59 -360 155 -488 192 -83 24 -93 25 -99 9z"/>
</g>
</svg>
